HIERARCHY
ROOT root
{
	OFFSET 0.000000 0.000000 0.000000
	CHANNELS 6 Xposition Yposition Zposition Zrotation Yrotation Xrotation
	JOINT lhip
	{
		OFFSET 0.058581 -0.082280 -0.017664
		CHANNELS 3 Zrotation Yrotation Xrotation
		JOINT lknee
		{
			OFFSET 0.043451 -0.386469 0.008037
			CHANNELS 3 Zrotation Yrotation Xrotation
			JOINT lankle
			{
				OFFSET -0.014790 -0.426874 -0.037428
				CHANNELS 3 Zrotation Yrotation Xrotation
				JOINT ltoe
				{
					OFFSET 0.041054 -0.060286 0.122042
					CHANNELS 3 Zrotation Yrotation Xrotation
					End Site
					{
						OFFSET 0.000000 0.000000 0.000000
					}
				}
			}
		}
	}
	JOINT rhip
	{
		OFFSET -0.060310 -0.090513 -0.013543
		CHANNELS 3 Zrotation Yrotation Xrotation
		JOINT rknee
		{
			OFFSET -0.043257 -0.383688 -0.004843
			CHANNELS 3 Zrotation Yrotation Xrotation
			JOINT rankle
			{
				OFFSET 0.019056 -0.420046 -0.034562
				CHANNELS 3 Zrotation Yrotation Xrotation
				JOINT rtoe
				{
					OFFSET -0.034840 -0.062106 0.130323
					CHANNELS 3 Zrotation Yrotation Xrotation
					End Site
					{
						OFFSET 0.000000 0.000000 0.000000
					}
				}
			}
		}
	}
	JOINT lowerback
	{
		OFFSET 0.004439 0.124404 -0.038385
		CHANNELS 3 Zrotation Yrotation Xrotation
		JOINT upperback
		{
			OFFSET 0.004488 0.137956 0.026820
			CHANNELS 3 Zrotation Yrotation Xrotation
			JOINT chest
			{
				OFFSET -0.002265 0.056032 0.002855
				CHANNELS 3 Zrotation Yrotation Xrotation
				JOINT lowerneck
				{
					OFFSET -0.013390 0.211636 -0.033468
					CHANNELS 3 Zrotation Yrotation Xrotation
					JOINT upperneck
					{
						OFFSET 0.010113 0.088937 0.050410
						CHANNELS 3 Zrotation Yrotation Xrotation
						End Site
						{
							OFFSET 0.000000 0.000000 0.000000
						}
					}
				}
				JOINT lclavicle
				{
					OFFSET 0.071702 0.114000 -0.018898
					CHANNELS 3 Zrotation Yrotation Xrotation
					JOINT lshoulder
					{
						OFFSET 0.122921 0.045205 -0.019046
						CHANNELS 3 Zrotation Yrotation Xrotation
						JOINT lelbow
						{
							OFFSET 0.255332 -0.015649 -0.022946
							CHANNELS 3 Zrotation Yrotation Xrotation
							JOINT lwrist
							{
								OFFSET 0.265709 0.012698 -0.007375
								CHANNELS 3 Zrotation Yrotation Xrotation
								End Site
								{
									OFFSET 0.000000 0.000000 0.000000
								}
							}
						}
					}
				}
				JOINT rclavicle
				{
					OFFSET -0.082954 0.112472 -0.023707
					CHANNELS 3 Zrotation Yrotation Xrotation
					JOINT rshoulder
					{
						OFFSET -0.113228 0.046853 -0.008472
						CHANNELS 3 Zrotation Yrotation Xrotation
						JOINT relbow
						{
							OFFSET -0.260127 -0.014369 -0.031269
							CHANNELS 3 Zrotation Yrotation Xrotation
							JOINT rwrist
							{
								OFFSET -0.269108 0.006794 -0.006027
								CHANNELS 3 Zrotation Yrotation Xrotation
								End Site
								{
									OFFSET 0.000000 0.000000 0.000000
								}
							}
						}
					}
				}
			}
		}
	}
}
MOTION
Frames: 15
Frame Time: 0.033333
0.569031 0.762724 0.977793 -86.687954 3.384387 86.728964 2.224046 -1.575781 3.109133 -2.872008 -15.880802 8.069494 7.887447 9.460812 -20.260052 0.000000 -0.000000 0.000000 2.899761 -1.633951 1.061187 2.789253 3.226304 10.703536 1.602019 -2.760540 -15.667716 0.000000 -0.000000 0.000000 -1.734022 2.649357 6.107262 1.421996 -1.430539 1.771585 1.245081 -0.809584 2.504853 3.444741 5.037999 13.517891 4.238349 3.621796 3.634328 -24.244414 4.469422 5.728021 -63.628495 -5.182743 7.459540 12.097805 -27.353660 5.523949 -3.690561 0.064771 -10.368272 22.128555 -2.407951 4.812809 64.911810 2.031980 10.027218 -14.789776 25.674841 -0.723089 8.338470 0.228762 -10.900323 
0.569083 0.762415 0.977699 -86.723646 3.440635 86.713861 2.261875 -1.607251 3.064380 -2.855055 -15.741457 8.176262 7.947123 9.399252 -20.306901 0.000000 -0.000000 0.000000 2.932438 -1.625236 1.082383 2.768398 3.116092 10.649124 1.581278 -2.610577 -15.636299 0.000000 -0.000000 0.000000 -1.667097 2.612126 6.011077 1.360779 -1.365902 1.806887 1.219198 -0.792067 2.687359 3.479125 5.105207 13.301093 4.133891 3.488784 3.906177 -24.148564 4.450564 5.592636 -63.745630 -5.324944 7.492511 12.163716 -27.339686 5.548323 -3.856324 -0.104069 -10.234681 22.101640 -2.389273 4.797549 65.084207 2.089190 10.061236 -15.009697 25.699382 -0.750928 8.338717 0.198833 -11.085070 
0.569145 0.762054 0.977665 -86.778437 3.459702 86.711217 2.239010 -1.569662 3.042238 -2.824523 -15.701964 8.214443 7.993238 9.394492 -20.371836 0.000000 -0.000000 0.000000 2.904489 -1.638854 1.050798 2.786851 3.143397 10.679879 1.618111 -2.526036 -15.714928 0.000000 -0.000000 0.000000 -1.656679 2.617139 5.900441 1.384316 -1.367401 1.956820 1.234060 -0.764940 2.697060 3.540617 5.114282 13.331743 4.138196 3.462149 3.920410 -24.180769 4.384645 5.515226 -63.761020 -5.336072 7.498749 12.261216 -27.289493 5.487018 -3.863843 -0.035643 -10.053323 22.013945 -2.400198 4.799324 65.153600 2.139905 10.042996 -15.046672 25.780708 -0.782655 8.402657 0.181052 -11.142317 
0.569146 0.761590 0.977636 -86.862152 3.479625 86.712033 2.242868 -1.571650 3.089016 -2.904568 -15.772460 8.129872 7.856846 9.442669 -20.242029 0.000000 -0.000000 0.000000 2.877276 -1.658743 1.023306 2.807229 3.181131 10.689566 1.606523 -2.556968 -15.652859 0.000000 -0.000000 0.000000 -1.617165 2.630262 5.862286 1.370997 -1.365665 1.922417 1.207326 -0.788035 2.722795 3.538841 5.098288 13.300697 4.150800 3.467784 3.930776 -24.136219 4.445051 5.462820 -63.761479 -5.344424 7.479461 12.201757 -27.137248 5.487202 -3.811429 -0.131822 -10.191375 21.951512 -2.460356 4.752752 65.158735 2.160595 10.088405 -14.930263 25.833082 -0.665471 8.373005 0.154113 -11.171815 
0.569295 0.761339 0.977681 -86.848267 3.464902 86.789092 2.195724 -1.513660 2.942736 -2.862833 -15.769599 8.216850 8.017384 9.472302 -20.349715 0.000000 -0.000000 0.000000 2.901375 -1.679163 0.822594 2.715478 3.179789 10.897342 1.619669 -2.594636 -15.740757 0.000000 -0.000000 0.000000 -1.637803 2.612016 5.887880 1.366794 -1.355397 1.690648 1.207518 -0.845996 2.786992 3.555017 5.114121 13.185931 4.132011 3.432789 4.001921 -24.103231 4.589576 5.404978 -63.748143 -5.304987 7.470767 12.124430 -27.122937 5.661060 -3.845959 -0.148552 -10.114504 21.912033 -2.596046 4.668939 65.206919 2.096676 10.118736 -14.896882 25.778200 -0.545845 8.342147 0.168739 -11.081310 
0.569079 0.761090 0.977842 -86.854451 3.474892 86.835795 2.200961 -1.512550 2.896698 -2.900738 -15.811211 8.241300 7.913298 9.413442 -20.319591 0.000000 -0.000000 0.000000 2.890756 -1.622013 0.942861 2.722666 3.217061 10.592508 1.682327 -2.586259 -15.680580 0.000000 -0.000000 0.000000 -1.600671 2.586139 6.071527 1.306299 -1.346735 1.267699 1.190855 -0.926082 2.802825 3.521403 5.149444 12.944520 4.120977 3.410608 4.071144 -24.046874 4.772522 5.394056 -63.730969 -5.164073 7.473301 12.100308 -26.968676 5.846312 -3.695994 -0.335576 -10.091340 21.935152 -2.769521 4.551950 65.172677 1.981462 10.198128 -14.776174 25.645667 -0.371697 8.254644 0.228522 -11.095053 
0.569291 0.760827 0.977808 -86.916200 3.477276 86.872112 2.198955 -1.535815 2.861514 -2.955893 -15.764748 8.239240 8.027896 9.495966 -20.293603 0.000000 -0.000000 0.000000 2.913113 -1.681419 0.805910 2.672781 3.314830 10.748700 1.658056 -2.635776 -15.594662 0.000000 -0.000000 0.000000 -1.622576 2.581909 5.976261 1.300357 -1.360088 1.310016 1.184145 -0.928454 2.857953 3.475901 5.110032 12.998884 4.158900 3.426236 4.045528 -23.999767 4.729244 5.448586 -63.803026 -5.141666 7.447533 12.217786 -26.748259 5.762287 -3.525086 -0.165127 -10.186491 21.894762 -2.694131 4.623852 65.220139 2.023440 10.239556 -14.882930 25.572021 -0.347944 8.321320 0.014891 -11.100874 
0.569173 0.760488 0.977814 -86.946023 3.493415 86.897384 2.178236 -1.526262 2.858259 -2.934401 -15.803356 8.205918 7.977777 9.559154 -20.235736 0.000000 -0.000000 0.000000 2.897911 -1.622671 0.822869 2.710247 3.344795 10.643765 1.672349 -2.675805 -15.636070 0.000000 -0.000000 0.000000 -1.656663 2.612113 6.035722 1.333508 -1.320084 1.164939 1.236560 -0.959330 2.787583 3.460753 5.079013 12.970927 4.175262 3.480218 3.999347 -23.964043 4.800780 5.465265 -63.806272 -5.019490 7.433455 12.115832 -26.653444 5.834706 -3.641654 0.010585 -10.238231 21.882152 -2.752943 4.698854 65.147257 1.918013 10.197614 -14.864352 25.567751 -0.343941 8.478612 -0.125391 -11.080049 
0.569092 0.760248 0.977846 -86.923823 3.529377 86.921147 2.222720 -1.519248 2.893714 -2.945007 -15.808318 8.107740 8.024221 9.510383 -20.287666 0.000000 -0.000000 0.000000 2.912600 -1.601212 0.813166 2.707505 3.341246 10.658529 1.736008 -2.687195 -15.574631 0.000000 -0.000000 0.000000 -1.632684 2.543036 6.066453 1.338414 -1.315972 1.027050 1.258999 -0.950003 2.816157 3.526733 5.070751 12.829479 4.151454 3.460888 4.065661 -24.116987 4.866067 5.504366 -63.662683 -4.982172 7.375486 12.086354 -26.595571 5.842246 -3.673885 0.075147 -9.940507 21.936576 -2.802145 4.681628 65.021509 1.895607 10.130195 -14.750299 25.529036 -0.412883 8.377084 0.212656 -10.870872 
0.568953 0.760158 0.977807 -86.952840 3.597161 86.879180 2.304797 -1.476548 2.963496 -2.961643 -15.783482 8.096740 7.996232 9.534981 -20.314561 0.000000 -0.000000 0.000000 2.947710 -1.624698 0.891460 2.735061 3.282034 10.597656 1.786660 -2.700670 -15.473756 0.000000 -0.000000 0.000000 -1.619828 2.538092 6.122968 1.351809 -1.285709 0.974552 1.276199 -0.941027 2.806178 3.473767 5.083016 12.846225 4.143879 3.490857 4.049650 -24.102859 4.833653 5.552761 -63.686619 -4.903893 7.366786 12.134119 -26.398937 5.867842 -3.629017 -0.112648 -10.018038 21.961145 -2.841532 4.724662 65.029504 1.845896 10.117688 -14.773419 25.544929 -0.389478 8.175766 0.143321 -10.975408 
0.568962 0.759992 0.977775 -86.995591 3.624301 86.806757 2.319240 -1.514795 3.088384 -2.964415 -15.790730 8.022716 7.984292 9.545924 -20.304350 0.000000 -0.000000 0.000000 2.988237 -1.602007 0.951887 2.701557 3.365561 10.631760 1.740919 -2.733687 -15.557174 0.000000 -0.000000 0.000000 -1.668562 2.575418 6.056259 1.376853 -1.277164 1.163321 1.297444 -0.899057 2.767410 3.387903 5.135704 12.976426 4.131622 3.524968 3.921797 -23.995678 4.740034 5.707563 -63.796219 -4.935621 7.352658 12.193385 -26.383532 5.874103 -3.804364 0.038473 -10.189182 21.964803 -2.773271 4.769797 65.040933 1.820351 10.087649 -14.855366 25.503842 -0.406413 8.328011 -0.035475 -11.104462 
0.569093 0.759721 0.977841 -87.000732 3.637307 86.807728 2.322870 -1.495883 3.100023 -2.970720 -15.786777 7.998775 7.976862 9.548057 -20.289693 0.000000 -0.000000 0.000000 2.976632 -1.611073 0.943799 2.706781 3.365713 10.626951 1.758330 -2.718467 -15.542502 0.000000 -0.000000 0.000000 -1.667625 2.572839 6.085586 1.374022 -1.269984 1.146852 1.297210 -0.901755 2.779985 3.393466 5.127011 12.956093 4.127492 3.501030 3.930535 -24.003820 4.777577 5.686195 -63.753999 -4.916327 7.346543 12.142733 -26.389423 5.895954 -3.791302 0.045181 -10.153452 22.000083 -2.802403 4.767932 65.009641 1.804940 10.087547 -14.834095 25.545998 -0.422795 8.294437 -0.001399 -11.095113 
0.569406 0.759393 0.977875 -87.131449 3.636268 86.826110 2.306776 -1.487226 3.074124 -3.005997 -15.757225 7.978599 7.925675 9.653445 -20.284490 0.000000 -0.000000 0.000000 2.894988 -1.562943 0.822728 2.799816 3.331887 10.758355 1.823247 -2.656438 -15.392416 0.000000 -0.000000 0.000000 -1.606606 2.612082 6.163628 1.330236 -1.190397 1.013562 1.240935 -0.900054 2.785892 3.375496 5.138845 12.871905 4.115924 3.459989 3.977071 -23.984008 4.878166 5.635182 -63.628209 -4.864211 7.333283 11.953773 -26.396166 6.016035 -3.856653 -0.000289 -10.170526 22.051845 -2.906812 4.771461 65.003919 1.739932 10.108902 -14.832009 25.614256 -0.358020 8.187359 0.231092 -11.057178 
0.569447 0.759141 0.977934 -87.134171 3.631949 86.815905 2.285315 -1.423343 3.098492 -3.013060 -15.773084 7.990766 7.955089 9.634796 -20.312731 0.000000 -0.000000 0.000000 2.859754 -1.611348 0.852487 2.818046 3.370171 10.701187 1.882562 -2.661681 -15.395291 0.000000 -0.000000 0.000000 -1.624464 2.607833 6.195612 1.316257 -1.195007 0.956418 1.226288 -0.902879 2.849642 3.458240 5.128553 12.758933 4.111317 3.428433 4.082270 -23.988417 4.954238 5.515644 -63.517810 -4.855021 7.357014 11.856980 -26.232725 6.128632 -3.753573 -0.223209 -10.013767 22.098122 -3.039640 4.606330 64.978166 1.751103 10.142939 -14.715209 25.566071 -0.290057 8.147372 0.233642 -10.994771 
0.569657 0.759177 0.977983 -87.191921 3.643542 86.822748 2.284654 -1.413108 3.057419 -3.027240 -15.711363 8.067683 7.916590 9.622914 -20.366024 0.000000 -0.000000 0.000000 2.858093 -1.579229 0.821022 2.831433 3.344792 10.710755 1.842295 -2.643274 -15.425203 0.000000 -0.000000 0.000000 -1.690925 2.643417 6.217293 1.344899 -1.197994 0.946393 1.268967 -0.921716 2.833618 3.476914 5.136973 12.762071 4.111313 3.407995 4.079030 -24.047470 4.975361 5.520836 -63.437798 -4.856980 7.300623 11.838275 -26.268364 5.956648 -3.599943 -0.251071 -9.878045 22.153985 -2.981331 4.645301 64.967848 1.760128 10.131709 -14.818722 25.578966 -0.405965 8.106050 0.171123 -10.914032 
